<?xml version="1.0" encoding="UTF-8"?>
<svg width="600px" height="638px" viewBox="0 0 600 638" version="1.1" xmlns="http://www.w3.org/2000/svg" xmlns:xlink="http://www.w3.org/1999/xlink">
    <!-- Generator: Sketch 51.3 (57544) - http://www.bohemiancoding.com/sketch -->
    <title>iPhone X with Spacing</title>
    <desc>Created with Sketch.</desc>
    <defs>
        <filter x="-4.1%" y="-2.0%" width="111.6%" height="105.7%" filterUnits="objectBoundingBox" id="filter-1">
            <feOffset dx="5" dy="5" in="SourceAlpha" result="shadowOffsetOuter1"></feOffset>
            <feGaussianBlur stdDeviation="5" in="shadowOffsetOuter1" result="shadowBlurOuter1"></feGaussianBlur>
            <feColorMatrix values="0 0 0 0 0   0 0 0 0 0   0 0 0 0 0  0 0 0 0.401126585 0" type="matrix" in="shadowBlurOuter1" result="shadowMatrixOuter1"></feColorMatrix>
            <feMerge>
                <feMergeNode in="shadowMatrixOuter1"></feMergeNode>
                <feMergeNode in="SourceGraphic"></feMergeNode>
            </feMerge>
        </filter>
        <path d="M63.4115229,1.47054205e-15 C65.303788,1.47054205e-15 66.2499206,0.946845004 66.2499206,2.84053501 L66.2499206,4.7322032 C66.2499206,13.0954789 73.0296951,19.8752535 81.3929709,19.8752535 L189.287204,19.8752535 C197.65048,19.8752535 204.430254,13.0954789 204.430254,4.7322032 L204.430254,2.84053501 C204.430254,0.946845004 205.376387,1.47054205e-15 207.268652,1.47054205e-15 L234.283546,0 C246.94009,-2.32496932e-15 251.529658,1.31780896 256.156701,3.79237871 C260.783744,6.26694846 264.415075,9.89827899 266.889645,14.5253221 C269.364214,19.1523653 270.682023,23.7419338 270.682023,36.3984773 L270.682023,554.180483 C270.682023,566.837026 269.364214,571.426595 266.889645,576.053638 C264.415075,580.680681 260.783744,584.312011 256.156701,586.786581 C251.529658,589.261151 246.94009,590.57896 234.283546,590.57896 L36.3984773,590.57896 C23.7419338,590.57896 19.1523653,589.261151 14.5253221,586.786581 C9.89827899,584.312011 6.26694846,580.680681 3.79237871,576.053638 C1.31780896,571.426595 1.64345461e-15,566.837026 0,554.180483 L0,36.3984773 C-1.526065e-15,23.7419338 1.31780896,19.1523653 3.79237871,14.5253221 C6.26694846,9.89827899 9.89827899,6.26694846 14.5253221,3.79237871 C19.1523653,1.31780896 23.7419338,2.32496932e-15 36.3984773,0 L63.4115229,1.47054205e-15 Z" id="path-2"></path>
    </defs>
    <g id="Page-1" stroke="none" stroke-width="1" fill="none" fill-rule="evenodd">
        <g id="Square" transform="translate(-1073.000000, -200.000000)">
            <g id="iPhone-X-with-Spacing" transform="translate(1073.000000, 205.000000)">
                <rect id="Rectangle-7" fill-opacity="0.01" fill="#FFFFFF" fill-rule="nonzero" x="0.442909135" y="0.519384212" width="599.546469" height="618"></rect>
                <g id="iPhoneXs-Max---black" filter="url(#filter-1)" transform="translate(300.216143, 309.519384) rotate(-360.000000) translate(-300.216143, -309.519384) translate(148.716143, 0.519384)">
                    <g id="body" transform="translate(0.000000, 0.000000)">
                        <path d="M1.89288128,74.7688106 L2.83932192,74.7688106 L2.83932192,95.5905047 L1.89288128,95.5905047 C0.847471817,95.5905047 1.28025736e-16,94.7430329 0,93.6976234 L0,76.6616919 C-1.28025736e-16,75.6162824 0.847471817,74.7688106 1.89288128,74.7688106 Z" id="manerButton" fill="#3E3F40"></path>
                        <path d="M300.021683,128.715927 L300.968124,128.715927 C302.013533,128.715927 302.861005,129.563399 302.861005,130.608808 L302.861005,192.12745 C302.861005,193.17286 302.013533,194.020331 300.968124,194.020331 L300.021683,194.020331 L300.021683,128.715927 Z" id="sleepButton" fill="#3E3F40"></path>
                        <path d="M1.89288128,114.519318 L2.83932192,114.519318 L2.83932192,156.162706 L1.89288128,156.162706 C0.847471817,156.162706 1.28025736e-16,155.315234 0,154.269824 L0,116.412199 C-1.28025736e-16,115.366789 0.847471817,114.519318 1.89288128,114.519318 Z" id="soundButton" fill="#3E3F40"></path>
                        <path d="M1.89288128,166.573553 L2.83932192,166.573553 L2.83932192,208.216941 L1.89288128,208.216941 C0.847471817,208.216941 1.28025736e-16,207.369469 0,206.32406 L0,168.466434 C-1.28025736e-16,167.421025 0.847471817,166.573553 1.89288128,166.573553 Z" id="soundButton" fill="#3E3F40"></path>
                        <path d="M56.2237553,0 L246.63725,0 C265.20018,-3.40995501e-15 271.931547,1.93278648 278.717877,5.56215544 C285.504207,9.1915244 290.830159,14.5174758 294.459528,21.3038058 C298.088897,28.0901357 300.021683,34.8215029 300.021683,53.3844333 L300.021683,563.694865 C300.021683,582.257795 298.088897,588.989162 294.459528,595.775492 C290.830159,602.561822 285.504207,607.887773 278.717877,611.517142 C271.931547,615.146511 265.20018,617.079298 246.63725,617.079298 L56.2237553,617.079298 C37.6608248,617.079298 30.9294576,615.146511 24.1431277,611.517142 C17.3567978,607.887773 12.0308463,602.561822 8.40147736,595.775492 C4.7721084,588.989162 2.83932192,582.257795 2.83932192,563.694865 L2.83932192,53.3844333 C2.83932192,34.8215029 4.7721084,28.0901357 8.40147736,21.3038058 C12.0308463,14.5174758 17.3567978,9.1915244 24.1431277,5.56215544 C30.9294576,1.93278648 37.6608248,3.40995501e-15 56.2237553,0 Z" fill="#131415"></path>
                        <path d="M137.233893,19.0334104 L165.627112,19.0334104 C166.672522,19.0334104 167.519993,19.8808822 167.519993,20.9262916 C167.519993,21.9717011 166.672522,22.8191729 165.627112,22.8191729 L137.233893,22.8191729 C136.188483,22.8191729 135.341012,21.9717011 135.341012,20.9262916 C135.341012,19.8808822 136.188483,19.0334104 137.233893,19.0334104 Z" id="speaker" fill="#3B3F48"></path>
                        <circle id="camera" fill="#3B3F48" cx="181.716603" cy="20.9262916" r="3.78576256"></circle>
                    </g>
                    <g id="display" transform="translate(16.089491, 13.250169)">
                        <mask id="mask-3" fill="white">
                            <use xlink:href="#path-2"></use>
                        </mask>
                        <path stroke="#3B3F48" stroke-width="2" d="M63.4115229,-1 C65.8562414,-1 67.2499206,0.394728688 67.2499206,2.84053501 L67.2499206,4.7322032 C67.2499206,12.5431942 73.5819799,18.8752535 81.3929709,18.8752535 L189.287204,18.8752535 C197.098195,18.8752535 203.430254,12.5431942 203.430254,4.7322032 L203.430254,2.84053501 C203.430254,0.394728688 204.823933,-1 207.268652,-1 L234.283546,-1 C245.973751,-1 251.20514,0.010227821 256.6283,2.91056551 C261.429612,5.47833506 265.203688,9.25241166 267.771458,14.0537233 C270.671795,19.4768832 271.682023,24.7082722 271.682023,36.3984773 L271.682023,554.180483 C271.682023,565.870688 270.671795,571.102077 267.771458,576.525237 C265.203688,581.326548 261.429612,585.100625 256.6283,587.668394 C251.20514,590.568732 245.973751,591.57896 234.283546,591.57896 L36.3984773,591.57896 C24.7082722,591.57896 19.4768832,590.568732 14.0537233,587.668394 C9.25241166,585.100625 5.47833506,581.326548 2.91056551,576.525237 C0.010227821,571.102077 -1,565.870688 -1,554.180483 L-1,36.3984773 C-1,24.7082722 0.010227821,19.4768832 2.91056551,14.0537233 C5.47833506,9.25241166 9.25241166,5.47833506 14.0537233,2.91056551 C19.4768832,0.010227821 24.7082722,-1 36.3984773,-1 L63.4115229,-1 Z"></path>
                        <rect id="Screen-BG" fill="#3B3F48" fill-rule="nonzero" mask="url(#mask-3)" x="-16.0894909" y="-13.250169" width="303.114093" height="617.85203"></rect>
                        <g id="HN-Screen" mask="url(#mask-3)">
                            <g transform="translate(50.561373, 92.277962)">
                                <text id="All-the-latest-tech" font-family="Avenir-Light, Avenir" font-size="14" font-weight="300" letter-spacing="0.74242425">
                                    <tspan x="2.24152364" y="325.61536" fill="#E6E6E6">All the latest tech news,</tspan>
                                    <tspan x="6.71516002" y="344.61536" fill="#E6E6E6">gathered in one place.</tspan>
                                </text>
                                <g id="Group-2" stroke-width="1" fill-rule="evenodd" transform="translate(14.269811, 190.688453)">
                                    <g id="single-paragraph-copy-2" transform="translate(93.791824, 13.522235)" fill-rule="nonzero">
                                        <path d="M46.3478011,2.43935795 L46.3478011,53.6658749 C46.3478011,55.0136202 45.2561884,56.1052329 43.9084431,56.1052329 L2.43935795,56.1052329 C1.09161268,56.1052329 0,55.0136202 0,53.6658749 L0,2.43935795 C0,1.09161268 1.09161268,0 2.43935795,0 L43.9084431,0 C45.2561884,0 46.3478011,1.09161268 46.3478011,2.43935795 Z" id="Shape" fill="#C3C4C6"></path>
                                        <path d="M35.3706903,14.6361477 L28.0526164,14.6361477 C27.378134,14.6361477 26.8329375,14.0897315 26.8329375,13.4164687 C26.8329375,12.7432059 27.378134,12.1967898 28.0526164,12.1967898 L35.3706903,12.1967898 C36.0451728,12.1967898 36.5903693,12.7432059 36.5903693,13.4164687 C36.5903693,14.0897315 36.0451728,14.6361477 35.3706903,14.6361477 Z" id="Shape" fill="#B3B3B3"></path>
                                        <path d="M35.3706903,24.3935795 L28.0526164,24.3935795 C27.378134,24.3935795 26.8329375,23.8471633 26.8329375,23.1739005 C26.8329375,22.5006377 27.378134,21.9542216 28.0526164,21.9542216 L35.3706903,21.9542216 C36.0451728,21.9542216 36.5903693,22.5006377 36.5903693,23.1739005 C36.5903693,23.8471633 36.0451728,24.3935795 35.3706903,24.3935795 Z" id="Shape" fill="#B3B3B3"></path>
                                        <path d="M35.3706903,34.1510113 L10.9771108,34.1510113 C10.3026283,34.1510113 9.7574318,33.6045951 9.7574318,32.9313323 C9.7574318,32.2580695 10.3026283,31.7116534 10.9771108,31.7116534 L35.3706903,31.7116534 C36.0451728,31.7116534 36.5903693,32.2580695 36.5903693,32.9313323 C36.5903693,33.6045951 36.0451728,34.1510113 35.3706903,34.1510113 Z" id="Shape" fill="#B3B3B3"></path>
                                        <path d="M35.3706903,43.9084431 L10.9771108,43.9084431 C10.3026283,43.9084431 9.7574318,43.3620269 9.7574318,42.6887641 C9.7574318,42.0155013 10.3026283,41.4690852 10.9771108,41.4690852 L35.3706903,41.4690852 C36.0451728,41.4690852 36.5903693,42.0155013 36.5903693,42.6887641 C36.5903693,43.3620269 36.0451728,43.9084431 35.3706903,43.9084431 Z" id="Shape" fill="#B3B3B3"></path>
                                        <path d="M20.7345426,24.3935795 L10.9771108,24.3935795 C10.3026283,24.3935795 9.7574318,23.8471633 9.7574318,23.1739005 L9.7574318,13.4164687 C9.7574318,12.7432059 10.3026283,12.1967898 10.9771108,12.1967898 L20.7345426,12.1967898 C21.4090251,12.1967898 21.9542216,12.7432059 21.9542216,13.4164687 L21.9542216,23.1739005 C21.9542216,23.8471633 21.4090251,24.3935795 20.7345426,24.3935795 Z" id="Shape" fill="#FF6600"></path>
                                    </g>
                                    <g id="single-paragraph-copy" transform="translate(52.148435, 6.897151)" fill-rule="nonzero">
                                        <path d="M57.4663608,3.0245453 L57.4663608,66.5399967 C57.4663608,68.2110579 56.1128767,69.564542 54.4418154,69.564542 L3.0245453,69.564542 C1.35348402,69.564542 0,68.2110579 0,66.5399967 L0,3.0245453 C0,1.35348402 1.35348402,0 3.0245453,0 L54.4418154,0 C56.1128767,0 57.4663608,1.35348402 57.4663608,3.0245453 Z" id="Shape" fill="#D5D6D7"></path>
                                        <path d="M43.8559069,18.1472718 L34.782271,18.1472718 C33.9459842,18.1472718 33.2699983,17.4697737 33.2699983,16.6349992 C33.2699983,15.8002247 33.9459842,15.1227265 34.782271,15.1227265 L43.8559069,15.1227265 C44.6921937,15.1227265 45.3681795,15.8002247 45.3681795,16.6349992 C45.3681795,17.4697737 44.6921937,18.1472718 43.8559069,18.1472718 Z" id="Shape" fill="#B3B3B3"></path>
                                        <path d="M43.8559069,30.245453 L34.782271,30.245453 C33.9459842,30.245453 33.2699983,29.5679549 33.2699983,28.7331804 C33.2699983,27.8984059 33.9459842,27.2209077 34.782271,27.2209077 L43.8559069,27.2209077 C44.6921937,27.2209077 45.3681795,27.8984059 45.3681795,28.7331804 C45.3681795,29.5679549 44.6921937,30.245453 43.8559069,30.245453 Z" id="Shape" fill="#B3B3B3"></path>
                                        <path d="M43.8559069,42.3436342 L13.6104539,42.3436342 C12.7741671,42.3436342 12.0981812,41.6661361 12.0981812,40.8313616 C12.0981812,39.9965871 12.7741671,39.3190889 13.6104539,39.3190889 L43.8559069,39.3190889 C44.6921937,39.3190889 45.3681795,39.9965871 45.3681795,40.8313616 C45.3681795,41.6661361 44.6921937,42.3436342 43.8559069,42.3436342 Z" id="Shape" fill="#B3B3B3"></path>
                                        <path d="M43.8559069,54.4418154 L13.6104539,54.4418154 C12.7741671,54.4418154 12.0981812,53.7643173 12.0981812,52.9295428 C12.0981812,52.0947683 12.7741671,51.4172701 13.6104539,51.4172701 L43.8559069,51.4172701 C44.6921937,51.4172701 45.3681795,52.0947683 45.3681795,52.9295428 C45.3681795,53.7643173 44.6921937,54.4418154 43.8559069,54.4418154 Z" id="Shape" fill="#B3B3B3"></path>
                                        <path d="M25.7086351,30.245453 L13.6104539,30.245453 C12.7741671,30.245453 12.0981812,29.5679549 12.0981812,28.7331804 L12.0981812,16.6349992 C12.0981812,15.8002247 12.7741671,15.1227265 13.6104539,15.1227265 L25.7086351,15.1227265 C26.5449218,15.1227265 27.2209077,15.8002247 27.2209077,16.6349992 L27.2209077,28.7331804 C27.2209077,29.5679549 26.5449218,30.245453 25.7086351,30.245453 Z" id="Shape" fill="#FF6600"></path>
                                    </g>
                                    <g id="single-paragraph" transform="translate(0.567421, 0.745287)" fill-rule="nonzero">
                                        <path d="M67.8581889,3.57148363 L67.8581889,78.5726398 C67.8581889,80.5458845 66.25995,82.1441234 64.2867053,82.1441234 L3.57148363,82.1441234 C1.59823892,82.1441234 0,80.5458845 0,78.5726398 L0,3.57148363 C0,1.59823892 1.59823892,0 3.57148363,0 L64.2867053,0 C66.25995,0 67.8581889,1.59823892 67.8581889,3.57148363 Z" id="Shape" fill="#E6E6E6"></path>
                                        <path d="M51.7865126,21.4289018 L41.0720617,21.4289018 C40.0845465,21.4289018 39.2863199,20.6288894 39.2863199,19.6431599 C39.2863199,18.6574305 40.0845465,17.8574181 41.0720617,17.8574181 L51.7865126,17.8574181 C52.7740278,17.8574181 53.5722544,18.6574305 53.5722544,19.6431599 C53.5722544,20.6288894 52.7740278,21.4289018 51.7865126,21.4289018 Z" id="Shape" fill="#B3B3B3"></path>
                                        <path d="M51.7865126,35.7148363 L41.0720617,35.7148363 C40.0845465,35.7148363 39.2863199,34.9148239 39.2863199,33.9290944 C39.2863199,32.943365 40.0845465,32.1433526 41.0720617,32.1433526 L51.7865126,32.1433526 C52.7740278,32.1433526 53.5722544,32.943365 53.5722544,33.9290944 C53.5722544,34.9148239 52.7740278,35.7148363 51.7865126,35.7148363 Z" id="Shape" fill="#B3B3B3"></path>
                                        <path d="M51.7865126,50.0007708 L16.0716763,50.0007708 C15.0841611,50.0007708 14.2859345,49.2007584 14.2859345,48.215029 C14.2859345,47.2292995 15.0841611,46.4292871 16.0716763,46.4292871 L51.7865126,46.4292871 C52.7740278,46.4292871 53.5722544,47.2292995 53.5722544,48.215029 C53.5722544,49.2007584 52.7740278,50.0007708 51.7865126,50.0007708 Z" id="Shape" fill="#B3B3B3"></path>
                                        <path d="M51.7865126,64.2867053 L16.0716763,64.2867053 C15.0841611,64.2867053 14.2859345,63.4866929 14.2859345,62.5009635 C14.2859345,61.515234 15.0841611,60.7152216 16.0716763,60.7152216 L51.7865126,60.7152216 C52.7740278,60.7152216 53.5722544,61.515234 53.5722544,62.5009635 C53.5722544,63.4866929 52.7740278,64.2867053 51.7865126,64.2867053 Z" id="Shape" fill="#B3B3B3"></path>
                                        <path d="M30.3576108,35.7148363 L16.0716763,35.7148363 C15.0841611,35.7148363 14.2859345,34.9148239 14.2859345,33.9290944 L14.2859345,19.6431599 C14.2859345,18.6574305 15.0841611,17.8574181 16.0716763,17.8574181 L30.3576108,17.8574181 C31.345126,17.8574181 32.1433526,18.6574305 32.1433526,19.6431599 L32.1433526,33.9290944 C32.1433526,34.9148239 31.345126,35.7148363 30.3576108,35.7148363 Z" id="Shape" fill="#FF6600"></path>
                                    </g>
                                </g>
                                <g id="Group-3" stroke-width="1" fill-rule="evenodd" transform="translate(37.930827, 0.546837)">
                                    <g id="Group" transform="translate(0.225065, 24.095072)" fill="#FF6600">
                                        <path d="M30.8365483,0.210829036 L44.0460499,0.210829036 L44.0460499,47.7916534 L30.8365483,47.7916534 L30.8365483,30.6226287 L13.6342503,30.6226287 L13.6342503,47.7916534 L0.424748687,47.7916534 L0.424748687,0.210829036 L13.6342503,0.210829036 L13.6342503,17.3798538 L30.8365483,17.3798538 L30.8365483,0.210829036 Z M79.4024641,0.210829036 L92.6119657,0.210829036 L92.6119657,47.7916534 L80.7333963,47.7916534 L64.8620304,25.1325336 L64.8620304,47.7916534 L51.6525288,47.7916534 L51.6525288,0.210829036 L63.5643715,0.210829036 L79.4024641,22.8699489 L79.4024641,0.210829036 Z" id="HN"></path>
                                        <path d="M44.0460499,29.3396599 L44.0460499,47.7916534 L30.8365483,47.7916534 L30.8365483,30.6226287 L13.6342503,30.6226287 L13.6342503,47.7916534 L0.424748687,47.7916534 L0.424748687,29.3396599 L44.0460499,29.3396599 Z" id="Combined-Shape"></path>
                                        <path d="M92.611966,29.3396599 L92.611966,47.7916534 L80.7333965,47.7916534 L67.8088724,29.3396599 L92.611966,29.3396599 Z M64.8620306,29.3396599 L64.8620306,47.7916534 L51.652529,47.7916534 L51.652529,29.3396599 L64.8620306,29.3396599 Z" id="Combined-Shape"></path>
                                    </g>
                                    <text id="OPEN" font-family="Avenir-Light, Avenir" font-size="14" font-weight="300" letter-spacing="17.8999996" fill="#E6E6E6">
                                        <tspan x="0.29765727" y="14.3366501">OPE</tspan>
                                        <tspan x="82.0116561" y="14.3366501">N</tspan>
                                    </text>
                                </g>
                                <g id="Group-4" stroke-width="1" fill-rule="evenodd" transform="translate(37.930827, 398.451510)">
                                    <rect id="Rectangle-3" fill="#FF6600" fill-rule="nonzero" x="0" y="0.43872074" width="93.6976234" height="31.5878933" rx="15.7939467"></rect>
                                    <text id="Let’s-go!" font-family="Avenir-Light, Avenir" font-size="14" font-weight="300" letter-spacing="0.74000001" fill="#E6E6E6">
                                        <tspan x="17.2888117" y="21.2414813">Let’s go</tspan>
                                        <tspan x="71.2288118" y="21.2414813">!</tspan>
                                    </text>
                                </g>
                            </g>
                        </g>
                    </g>
                </g>
            </g>
        </g>
    </g>
</svg>