<?xml version="1.0" encoding="UTF-8"?>
<svg width="359px" height="711px" viewBox="0 0 359 711" version="1.1" xmlns="http://www.w3.org/2000/svg" xmlns:xlink="http://www.w3.org/1999/xlink">
    <!-- Generator: Sketch 51.3 (57544) - http://www.bohemiancoding.com/sketch -->
    <title>iPhoneXs Max - black</title>
    <desc>Created with Sketch.</desc>
    <defs>
        <filter x="-3.7%" y="-1.8%" width="110.3%" height="105.1%" filterUnits="objectBoundingBox" id="filter-1">
            <feOffset dx="5" dy="5" in="SourceAlpha" result="shadowOffsetOuter1"></feOffset>
            <feGaussianBlur stdDeviation="5" in="shadowOffsetOuter1" result="shadowBlurOuter1"></feGaussianBlur>
            <feColorMatrix values="0 0 0 0 0   0 0 0 0 0   0 0 0 0 0  0 0 0 0.401126585 0" type="matrix" in="shadowBlurOuter1" result="shadowMatrixOuter1"></feColorMatrix>
            <feMerge>
                <feMergeNode in="shadowMatrixOuter1"></feMergeNode>
                <feMergeNode in="SourceGraphic"></feMergeNode>
            </feMerge>
        </filter>
        <path d="M70.9188612,1.64464063e-15 C73.035153,1.64464063e-15 74.0932989,1.0589427 74.0932989,3.1768281 L74.0932989,5.29245232 C74.0932989,14.6458626 81.675736,22.2282998 91.0291463,22.2282998 L211.697059,22.2282998 C221.05047,22.2282998 228.632907,14.6458626 228.632907,5.29245232 L228.632907,3.1768281 C228.632907,1.0589427 229.691053,1.64464063e-15 231.807344,1.64464063e-15 L262.020552,0 C276.175514,-2.6002242e-15 281.308445,1.47382536 286.483287,4.2413613 C291.658129,7.00889723 295.719376,11.0701437 298.486912,16.244986 C301.254448,21.4198283 302.728273,26.5527593 302.728273,40.7077206 L302.728273,619.79033 C302.728273,633.945291 301.254448,639.078222 298.486912,644.253064 C295.719376,649.427906 291.658129,653.489153 286.483287,656.256689 C281.308445,659.024225 276.175514,660.49805 262.020552,660.49805 L40.7077206,660.49805 C26.5527593,660.49805 21.4198283,659.024225 16.244986,656.256689 C11.0701437,653.489153 7.00889723,649.427906 4.2413613,644.253064 C1.47382536,639.078222 1.83802445e-15,633.945291 0,619.79033 L0,40.7077206 C-1.70673699e-15,26.5527593 1.47382536,21.4198283 4.2413613,16.244986 C7.00889723,11.0701437 11.0701437,7.00889723 16.244986,4.2413613 C21.4198283,1.47382536 26.5527593,2.6002242e-15 40.7077206,0 L70.9188612,1.64464063e-15 Z" id="path-2"></path>
    </defs>
    <g id="Page-1" stroke="none" stroke-width="1" fill="none" fill-rule="evenodd">
        <g id="Square" transform="translate(-1301.000000, -200.000000)">
            <g id="iPhoneXs-Max---black" filter="url(#filter-1)" transform="translate(1475.942909, 551.019384) rotate(-360.000000) translate(-1475.942909, -551.019384) translate(1306.442909, 205.519384)">
                <g id="body" transform="translate(0.000000, 0.000000)">
                    <path d="M2.11698093,83.6207467 L3.17547139,83.6207467 L3.17547139,106.907537 L2.11698093,106.907537 C0.947804647,106.907537 1.43182799e-16,105.959732 0,104.790556 L0,85.7377277 C-1.43182799e-16,84.5685514 0.947804647,83.6207467 2.11698093,83.6207467 Z" id="manerButton" fill="#3E3F40"></path>
                    <path d="M335.541477,143.954703 L336.599968,143.954703 C337.769144,143.954703 338.716949,144.902508 338.716949,146.071684 L338.716949,214.873564 C338.716949,216.042741 337.769144,216.990545 336.599968,216.990545 L335.541477,216.990545 L335.541477,143.954703 Z" id="sleepButton" fill="#3E3F40"></path>
                    <path d="M2.11698093,128.077346 L3.17547139,128.077346 L3.17547139,174.650927 L2.11698093,174.650927 C0.947804647,174.650927 1.43182799e-16,173.703122 0,172.533946 L0,130.194327 C-1.43182799e-16,129.025151 0.947804647,128.077346 2.11698093,128.077346 Z" id="soundButton" fill="#3E3F40"></path>
                    <path d="M2.11698093,186.294322 L3.17547139,186.294322 L3.17547139,232.867902 L2.11698093,232.867902 C0.947804647,232.867902 1.43182799e-16,231.920098 0,230.750921 L0,188.411303 C-1.43182799e-16,187.242126 0.947804647,186.294322 2.11698093,186.294322 Z" id="soundButton" fill="#3E3F40"></path>
                    <path d="M62.8801282,0 L275.836821,0 C296.59743,-3.81366217e-15 304.125729,2.16161053 311.715498,6.22066324 C319.305267,10.2797159 325.261761,16.2362108 329.320814,23.8259795 C333.379867,31.4157481 335.541477,38.9440469 335.541477,59.7046568 L335.541477,630.431126 C335.541477,651.191736 333.379867,658.720035 329.320814,666.309804 C325.261761,673.899572 319.305267,679.856067 311.715498,683.91512 C304.125729,687.974173 296.59743,690.135783 275.836821,690.135783 L62.8801282,690.135783 C42.1195183,690.135783 34.5912195,687.974173 27.0014509,683.91512 C19.4116822,679.856067 13.4551873,673.899572 9.39613463,666.309804 C5.33708193,658.720035 3.17547139,651.191736 3.17547139,630.431126 L3.17547139,59.7046568 C3.17547139,38.9440469 5.33708193,31.4157481 9.39613463,23.8259795 C13.4551873,16.2362108 19.4116822,10.2797159 27.0014509,6.22066324 C34.5912195,2.16161053 42.1195183,3.81366217e-15 62.8801282,0 Z" fill="#131415"></path>
                    <path d="M153.481117,21.2867902 L185.235831,21.2867902 C186.405008,21.2867902 187.352812,22.2345949 187.352812,23.4037712 C187.352812,24.5729474 186.405008,25.5207521 185.235831,25.5207521 L153.481117,25.5207521 C152.311941,25.5207521 151.364136,24.5729474 151.364136,23.4037712 C151.364136,22.2345949 152.311941,21.2867902 153.481117,21.2867902 Z" id="speaker" fill="#3B3F48"></path>
                    <circle id="camera" fill="#3B3F48" cx="203.230169" cy="23.4037712" r="4.23396186"></circle>
                </g>
                <g id="display" transform="translate(17.994338, 14.818867)">
                    <mask id="mask-3" fill="white">
                        <use xlink:href="#path-2"></use>
                    </mask>
                    <path stroke="#3B3F48" stroke-width="2" d="M70.9188612,-1 C73.5876063,-1 75.0932989,0.506826385 75.0932989,3.1768281 L75.0932989,5.29245232 C75.0932989,14.0935778 82.2280208,21.2282998 91.0291463,21.2282998 L211.697059,21.2282998 C220.498185,21.2282998 227.632907,14.0935778 227.632907,5.29245232 L227.632907,3.1768281 C227.632907,0.506826385 229.138599,-1 231.807344,-1 L262.020552,-1 C275.076897,-1 280.90917,0.126263908 286.954886,3.3595481 C292.303997,6.22028383 296.507989,10.4242764 299.368725,15.7733871 C302.602009,21.8191029 303.728273,27.6513761 303.728273,40.7077206 L303.728273,619.79033 C303.728273,632.846674 302.602009,638.678947 299.368725,644.724663 C296.507989,650.073774 292.303997,654.277766 286.954886,657.138502 C280.90917,660.371786 275.076897,661.49805 262.020552,661.49805 L40.7077206,661.49805 C27.6513761,661.49805 21.8191029,660.371786 15.7733871,657.138502 C10.4242764,654.277766 6.22028383,650.073774 3.3595481,644.724663 C0.126263908,638.678947 -1,632.846674 -1,619.79033 L-1,40.7077206 C-1,27.6513761 0.126263908,21.8191029 3.3595481,15.7733871 C6.22028383,10.4242764 10.4242764,6.22028383 15.7733871,3.3595481 C21.8191029,0.126263908 27.6513761,-1 40.7077206,-1 L70.9188612,-1 Z"></path>
                    <rect id="Screen-BG" fill="#3B3F48" fill-rule="nonzero" mask="url(#mask-3)" x="-17.9943379" y="-14.8188665" width="339" height="691"></rect>
                    <g id="HN-Screen" mask="url(#mask-3)">
                        <g transform="translate(63.257717, 103.202820)">
                            <text id="All-the-latest-tech" font-family="Avenir-Light, Avenir" font-size="14" font-weight="300" letter-spacing="0.74242425">
                                <tspan x="5.41711641" y="364.42087" fill="#E6E6E6">All the latest tech news,</tspan>
                                <tspan x="9.89075279" y="383.42087" fill="#E6E6E6">gathered in one place.</tspan>
                            </text>
                            <g id="Group-2" stroke-width="1" fill-rule="evenodd" transform="translate(9.248880, 213.264203)">
                                <g id="single-paragraph-copy-2" transform="translate(104.895909, 15.123143)" fill-rule="nonzero">
                                    <path d="M51.8349523,2.72815539 L51.8349523,60.0194185 C51.8349523,61.5267243 50.6141028,62.7475739 49.1067969,62.7475739 L2.72815539,62.7475739 C1.22084954,62.7475739 0,61.5267243 0,60.0194185 L0,2.72815539 C0,1.22084954 1.22084954,0 2.72815539,0 L49.1067969,0 C50.6141028,0 51.8349523,1.22084954 51.8349523,2.72815539 Z" id="Shape" fill="#C3C4C6"></path>
                                    <path d="M39.5582531,16.3689323 L31.3737869,16.3689323 C30.619452,16.3689323 30.0097092,15.7578255 30.0097092,15.0048546 C30.0097092,14.2518837 30.619452,13.6407769 31.3737869,13.6407769 L39.5582531,13.6407769 C40.3125881,13.6407769 40.9223308,14.2518837 40.9223308,15.0048546 C40.9223308,15.7578255 40.3125881,16.3689323 39.5582531,16.3689323 Z" id="Shape" fill="#B3B3B3"></path>
                                    <path d="M39.5582531,27.2815539 L31.3737869,27.2815539 C30.619452,27.2815539 30.0097092,26.6704471 30.0097092,25.9174762 C30.0097092,25.1645053 30.619452,24.5533985 31.3737869,24.5533985 L39.5582531,24.5533985 C40.3125881,24.5533985 40.9223308,25.1645053 40.9223308,25.9174762 C40.9223308,26.6704471 40.3125881,27.2815539 39.5582531,27.2815539 Z" id="Shape" fill="#B3B3B3"></path>
                                    <path d="M39.5582531,38.1941754 L12.2766992,38.1941754 C11.5223643,38.1941754 10.9126215,37.5830686 10.9126215,36.8300977 C10.9126215,36.0771268 11.5223643,35.46602 12.2766992,35.46602 L39.5582531,35.46602 C40.3125881,35.46602 40.9223308,36.0771268 40.9223308,36.8300977 C40.9223308,37.5830686 40.3125881,38.1941754 39.5582531,38.1941754 Z" id="Shape" fill="#B3B3B3"></path>
                                    <path d="M39.5582531,49.1067969 L12.2766992,49.1067969 C11.5223643,49.1067969 10.9126215,48.4956901 10.9126215,47.7427193 C10.9126215,46.9897484 11.5223643,46.3786416 12.2766992,46.3786416 L39.5582531,46.3786416 C40.3125881,46.3786416 40.9223308,46.9897484 40.9223308,47.7427193 C40.9223308,48.4956901 40.3125881,49.1067969 39.5582531,49.1067969 Z" id="Shape" fill="#B3B3B3"></path>
                                    <path d="M23.1893208,27.2815539 L12.2766992,27.2815539 C11.5223643,27.2815539 10.9126215,26.6704471 10.9126215,25.9174762 L10.9126215,15.0048546 C10.9126215,14.2518837 11.5223643,13.6407769 12.2766992,13.6407769 L23.1893208,13.6407769 C23.9436557,13.6407769 24.5533985,14.2518837 24.5533985,15.0048546 L24.5533985,25.9174762 C24.5533985,26.6704471 23.9436557,27.2815539 23.1893208,27.2815539 Z" id="Shape" fill="#FF6600"></path>
                                </g>
                                <g id="single-paragraph-copy" transform="translate(58.322328, 7.713710)" fill-rule="nonzero">
                                    <path d="M64.2698467,3.38262351 L64.2698467,74.4177172 C64.2698467,76.2866167 62.7561227,77.8003408 60.8872232,77.8003408 L3.38262351,77.8003408 C1.51372402,77.8003408 0,76.2866167 0,74.4177172 L0,3.38262351 C0,1.51372402 1.51372402,0 3.38262351,0 L60.8872232,0 C62.7561227,0 64.2698467,1.51372402 64.2698467,3.38262351 Z" id="Shape" fill="#D5D6D7"></path>
                                    <path d="M49.0480409,20.2957411 L38.9001704,20.2957411 C37.964875,20.2957411 37.2088586,19.5380334 37.2088586,18.6044293 C37.2088586,17.6708252 37.964875,16.9131176 38.9001704,16.9131176 L49.0480409,16.9131176 C49.9833363,16.9131176 50.7393527,17.6708252 50.7393527,18.6044293 C50.7393527,19.5380334 49.9833363,20.2957411 49.0480409,20.2957411 Z" id="Shape" fill="#B3B3B3"></path>
                                    <path d="M49.0480409,33.8262351 L38.9001704,33.8262351 C37.964875,33.8262351 37.2088586,33.0685274 37.2088586,32.1349234 C37.2088586,31.2013193 37.964875,30.4436116 38.9001704,30.4436116 L49.0480409,30.4436116 C49.9833363,30.4436116 50.7393527,31.2013193 50.7393527,32.1349234 C50.7393527,33.0685274 49.9833363,33.8262351 49.0480409,33.8262351 Z" id="Shape" fill="#B3B3B3"></path>
                                    <path d="M49.0480409,47.3567292 L15.2218058,47.3567292 C14.2865104,47.3567292 13.530494,46.5990215 13.530494,45.6654174 C13.530494,44.7318133 14.2865104,43.9741056 15.2218058,43.9741056 L49.0480409,43.9741056 C49.9833363,43.9741056 50.7393527,44.7318133 50.7393527,45.6654174 C50.7393527,46.5990215 49.9833363,47.3567292 49.0480409,47.3567292 Z" id="Shape" fill="#B3B3B3"></path>
                                    <path d="M49.0480409,60.8872232 L15.2218058,60.8872232 C14.2865104,60.8872232 13.530494,60.1295155 13.530494,59.1959114 C13.530494,58.2623074 14.2865104,57.5045997 15.2218058,57.5045997 L49.0480409,57.5045997 C49.9833363,57.5045997 50.7393527,58.2623074 50.7393527,59.1959114 C50.7393527,60.1295155 49.9833363,60.8872232 49.0480409,60.8872232 Z" id="Shape" fill="#B3B3B3"></path>
                                    <path d="M28.7522998,33.8262351 L15.2218058,33.8262351 C14.2865104,33.8262351 13.530494,33.0685274 13.530494,32.1349234 L13.530494,18.6044293 C13.530494,17.6708252 14.2865104,16.9131176 15.2218058,16.9131176 L28.7522998,16.9131176 C29.6875952,16.9131176 30.4436116,17.6708252 30.4436116,18.6044293 L30.4436116,32.1349234 C30.4436116,33.0685274 29.6875952,33.8262351 28.7522998,33.8262351 Z" id="Shape" fill="#FF6600"></path>
                                </g>
                                <g id="single-paragraph" transform="translate(0.634598, 0.833522)" fill-rule="nonzero">
                                    <path d="M75.8919713,3.99431428 L75.8919713,87.8749141 C75.8919713,90.0817727 74.1045156,91.8692284 71.897657,91.8692284 L3.99431428,91.8692284 C1.78745564,91.8692284 0,90.0817727 0,87.8749141 L0,3.99431428 C0,1.78745564 1.78745564,0 3.99431428,0 L71.897657,0 C74.1045156,0 75.8919713,1.78745564 75.8919713,3.99431428 Z" id="Shape" fill="#E6E6E6"></path>
                                    <path d="M57.917557,23.9658857 L45.9346142,23.9658857 C44.8301863,23.9658857 43.937457,23.0711593 43.937457,21.9687285 C43.937457,20.8662978 44.8301863,19.9715714 45.9346142,19.9715714 L57.917557,19.9715714 C59.0219849,19.9715714 59.9147142,20.8662978 59.9147142,21.9687285 C59.9147142,23.0711593 59.0219849,23.9658857 57.917557,23.9658857 Z" id="Shape" fill="#B3B3B3"></path>
                                    <path d="M57.917557,39.9431428 L45.9346142,39.9431428 C44.8301863,39.9431428 43.937457,39.0484164 43.937457,37.9459856 C43.937457,36.8435549 44.8301863,35.9488285 45.9346142,35.9488285 L57.917557,35.9488285 C59.0219849,35.9488285 59.9147142,36.8435549 59.9147142,37.9459856 C59.9147142,39.0484164 59.0219849,39.9431428 57.917557,39.9431428 Z" id="Shape" fill="#B3B3B3"></path>
                                    <path d="M57.917557,55.9203999 L17.9744142,55.9203999 C16.8699863,55.9203999 15.9772571,55.0256735 15.9772571,53.9232427 C15.9772571,52.820812 16.8699863,51.9260856 17.9744142,51.9260856 L57.917557,51.9260856 C59.0219849,51.9260856 59.9147142,52.820812 59.9147142,53.9232427 C59.9147142,55.0256735 59.0219849,55.9203999 57.917557,55.9203999 Z" id="Shape" fill="#B3B3B3"></path>
                                    <path d="M57.917557,71.897657 L17.9744142,71.897657 C16.8699863,71.897657 15.9772571,71.0029306 15.9772571,69.9004998 C15.9772571,68.7980691 16.8699863,67.9033427 17.9744142,67.9033427 L57.917557,67.9033427 C59.0219849,67.9033427 59.9147142,68.7980691 59.9147142,69.9004998 C59.9147142,71.0029306 59.0219849,71.897657 57.917557,71.897657 Z" id="Shape" fill="#B3B3B3"></path>
                                    <path d="M33.9516714,39.9431428 L17.9744142,39.9431428 C16.8699863,39.9431428 15.9772571,39.0484164 15.9772571,37.9459856 L15.9772571,21.9687285 C15.9772571,20.8662978 16.8699863,19.9715714 17.9744142,19.9715714 L33.9516714,19.9715714 C35.0560992,19.9715714 35.9488285,20.8662978 35.9488285,21.9687285 L35.9488285,37.9459856 C35.9488285,39.0484164 35.0560992,39.9431428 33.9516714,39.9431428 Z" id="Shape" fill="#FF6600"></path>
                                </g>
                            </g>
                            <g id="Group-3" stroke-width="1" fill-rule="evenodd" transform="translate(35.711142, 0.611577)">
                                <g id="Group" transform="translate(0.251711, 26.947706)" fill="#FF6600">
                                    <path d="M34.4873106,0.235789245 L49.2606951,0.235789245 L49.2606951,53.4497435 L34.4873106,53.4497435 L34.4873106,34.2480649 L15.2484195,34.2480649 L15.2484195,53.4497435 L0.475035006,53.4497435 L0.475035006,0.235789245 L15.2484195,0.235789245 L15.2484195,19.4374678 L34.4873106,19.4374678 L34.4873106,0.235789245 Z M88.802982,0.235789245 L103.576366,0.235789245 L103.576366,53.4497435 L90.2914842,53.4497435 L72.5410953,28.1079932 L72.5410953,53.4497435 L57.7677108,53.4497435 L57.7677108,0.235789245 L71.0898056,0.235789245 L88.802982,25.5775395 L88.802982,0.235789245 Z" id="HN"></path>
                                    <path d="M49.2606951,32.8132044 L49.2606951,53.4497435 L34.4873106,53.4497435 L34.4873106,34.2480649 L15.2484195,34.2480649 L15.2484195,53.4497435 L0.475035006,53.4497435 L0.475035006,32.8132044 L49.2606951,32.8132044 Z" id="Combined-Shape"></path>
                                    <path d="M103.576367,32.8132044 L103.576367,53.4497435 L90.2914845,53.4497435 L75.8368161,32.8132044 L103.576367,32.8132044 Z M72.5410955,32.8132044 L72.5410955,53.4497435 L57.767711,53.4497435 L57.767711,32.8132044 L72.5410955,32.8132044 Z" id="Combined-Shape"></path>
                                </g>
                                <text id="OPEN" font-family="Avenir-Light, Avenir" font-size="14" font-weight="300" letter-spacing="19.3999996" fill="#E6E6E6">
                                    <tspan x="3.5647443" y="14.3765064">OPE</tspan>
                                    <tspan x="89.7787432" y="14.3765064">N</tspan>
                                </text>
                            </g>
                            <g id="Group-4" stroke-width="1" fill-rule="evenodd" transform="translate(35.711142, 445.624486)">
                                <rect id="Rectangle-3" fill="#FF6600" fill-rule="nonzero" x="0" y="0.490661221" width="104.790556" height="35.3276079" rx="17.663804"></rect>
                                <text id="Let’s-go!" font-family="Avenir-Light, Avenir" font-size="14" font-weight="300" letter-spacing="0.74000001" fill="#E6E6E6">
                                    <tspan x="22.835278" y="22.0988058">Let’s go</tspan>
                                    <tspan x="76.7752781" y="22.0988058">!</tspan>
                                </text>
                            </g>
                        </g>
                    </g>
                </g>
            </g>
        </g>
    </g>
</svg>