<?xml version="1.0" encoding="UTF-8"?>
<svg width="824px" height="638px" viewBox="0 0 824 638" version="1.1" xmlns="http://www.w3.org/2000/svg" xmlns:xlink="http://www.w3.org/1999/xlink">
    <!-- Generator: Sketch 51.3 (57544) - http://www.bohemiancoding.com/sketch -->
    <title>iPad Pro</title>
    <desc>Created with Sketch.</desc>
    <defs>
        <filter x="-1.6%" y="-2.0%" width="104.3%" height="105.7%" filterUnits="objectBoundingBox" id="filter-1">
            <feOffset dx="5" dy="5" in="SourceAlpha" result="shadowOffsetOuter1"></feOffset>
            <feGaussianBlur stdDeviation="5" in="shadowOffsetOuter1" result="shadowBlurOuter1"></feGaussianBlur>
            <feColorMatrix values="0 0 0 0 0   0 0 0 0 0   0 0 0 0 0  0 0 0 0.401126585 0" type="matrix" in="shadowBlurOuter1" result="shadowMatrixOuter1"></feColorMatrix>
            <feMerge>
                <feMergeNode in="shadowMatrixOuter1"></feMergeNode>
                <feMergeNode in="SourceGraphic"></feMergeNode>
            </feMerge>
        </filter>
        <path d="M47.4219638,0.255655537 C48.8285063,0.255655537 699.403409,0.255655537 700.809951,0.255655537 L720.890435,0.255655537 C730.29819,0.255655537 733.709669,1.24058017 737.149004,3.09006273 C740.588339,4.93954529 743.287548,7.65358577 745.126925,11.1118175 C746.966301,14.5700492 747.945844,18.0002725 747.945844,27.4597176 L747.945844,534.257771 C747.945844,543.717216 746.966301,547.147439 745.126925,550.605671 C743.287548,554.063903 740.588339,556.777943 737.149004,558.627426 C733.709669,560.476908 730.29819,561.461833 720.890435,561.461833 L27.3428546,561.461833 C17.9350995,561.461833 14.5236201,560.476908 11.0842855,558.627426 C7.6449508,556.777943 4.94574083,554.063903 3.10636452,550.605671 C1.26698822,547.147439 0.287445578,543.717216 0.287445578,534.257771 L0.287445578,27.4597176 C0.287445578,18.0002725 1.26698822,14.5700492 3.10636452,11.1118175 C4.94574083,7.65358577 7.6449508,4.93954529 11.0842855,3.09006273 C14.5236201,1.24058017 17.9350995,0.255655537 27.3428546,0.255655537 L47.4219638,0.255655537 Z" id="path-2"></path>
        <circle id="path-4" cx="29" cy="29" r="29"></circle>
        <path d="M227.81467,81.9360934 L716.043235,81.9360934 L716.043235,137.936093 L227.81467,137.936093 L227.81467,81.9360934 Z" id="path-6"></path>
        <mask id="mask-7" maskContentUnits="userSpaceOnUse" maskUnits="objectBoundingBox" x="0" y="0" width="488.228566" height="56" fill="white">
            <use xlink:href="#path-6"></use>
        </mask>
    </defs>
    <g id="Page-1" stroke="none" stroke-width="1" fill="none" fill-rule="evenodd">
        <g id="Square" transform="translate(-214.000000, -200.000000)">
            <g id="iPad-Pro" filter="url(#filter-1)" transform="translate(621.500000, 514.519384) rotate(-360.000000) translate(-621.500000, -514.519384) translate(219.000000, 205.519384)">
                <g id="body" transform="translate(-0.000000, 0.000000)">
                    <polygon id="volumeUpButton" fill="#3E3F40" transform="translate(732.455816, 616.062186) rotate(-90.000000) translate(-732.455816, -616.062186) " points="733.54477 601.209062 733.54477 630.91531 731.366863 630.91531 731.366863 601.209062"></polygon>
                    <polygon id="volumeDownButton" fill="#3E3F40" transform="translate(698.026039, 616.062186) rotate(-90.000000) translate(-698.026039, -616.062186) " points="699.114993 601.209062 699.114993 630.91531 696.937085 630.91531 696.937085 601.209062"></polygon>
                    <polygon id="sleepButton" fill="#3E3F40" transform="translate(803.022941, 561.324705) rotate(-180.000000) translate(-803.022941, -561.324705) " points="804.111894 543.494403 804.111894 579.155007 801.933987 579.155007 801.933987 543.494403"></polygon>
                    <path d="M41.0689818,1.25055521e-12 L760.985353,1.3285277e-12 C775.224085,1.32577707e-12 780.387393,1.48254765 785.592861,4.26646223 C790.798328,7.0503768 794.88361,11.1356583 797.667525,16.3411259 C800.451439,21.5465936 801.933987,26.709902 801.933987,40.9486342 L801.933987,574.024598 C801.933987,588.26333 800.451439,593.426639 797.667525,598.632106 C794.88361,603.837574 790.798328,607.922855 785.592861,610.70677 C780.387393,613.490685 775.224085,614.973232 760.985353,614.973232 L41.0689818,614.973232 C26.8302496,614.973232 21.6669412,613.490685 16.4614736,610.70677 C11.2560059,607.922855 7.17072443,603.837574 4.38680986,598.632106 C1.60289528,593.426639 0.12034763,588.26333 0.12034763,574.024598 L0.12034763,40.9486342 C0.12034763,26.709902 1.60289528,21.5465936 4.38680986,16.3411259 C7.17072443,11.1356583 11.2560059,7.0503768 16.4614736,4.26646223 C21.6669412,1.48254765 26.8302496,1.25055521e-12 41.0689818,1.25055521e-12 Z" fill="#131415"></path>
                    <circle id="camera" fill="#3B3F48" cx="788.933058" cy="307.486616" r="2.90387659"></circle>
                </g>
                <g id="display" transform="translate(28.500000, 28.000000)">
                    <mask id="mask-3" fill="white">
                        <use xlink:href="#path-2"></use>
                    </mask>
                    <path stroke="#3E3F40" stroke-width="2" d="M47.4219638,-0.744344463 C47.8048722,-0.744344463 47.8048722,-0.744344463 49.4160655,-0.744344463 C51.6215902,-0.744344463 51.6215902,-0.744344463 54.9761555,-0.744344463 C63.3494141,-0.744344463 63.3494141,-0.744344463 75.8433702,-0.744344463 C106.536864,-0.744344463 106.536864,-0.744344463 149.909427,-0.744344463 C251.869437,-0.744344463 251.869437,-0.744344463 374.115958,-0.744344463 C496.362479,-0.744344463 496.362479,-0.744344463 598.322488,-0.744344463 C641.695051,-0.744344463 641.695051,-0.744344463 672.388545,-0.744344463 C684.882501,-0.744344463 684.882501,-0.744344463 693.25576,-0.744344463 C696.610325,-0.744344463 696.610325,-0.744344463 698.81585,-0.744344463 C700.427043,-0.744344463 700.427043,-0.744344463 700.809951,-0.744344463 L720.890435,-0.744344463 C729.619371,-0.744344463 733.548726,0.0186179491 737.622614,2.20932807 C741.236143,4.15248286 744.077706,7.00965786 746.009809,10.6422261 C748.187511,14.7365483 748.945844,18.685094 748.945844,27.4597176 L748.945844,534.257771 C748.945844,543.032395 748.187511,546.98094 746.009809,551.075262 C744.077706,554.707831 741.236143,557.565006 737.622614,559.50816 C733.548726,561.698871 729.619371,562.461833 720.890435,562.461833 L27.3428546,562.461833 C18.6139179,562.461833 14.6845637,561.698871 10.6106754,559.50816 C6.99714602,557.565006 4.15558368,554.707831 2.22348063,551.075262 C0.04577835,546.98094 -0.712554422,543.032395 -0.712554422,534.257771 L-0.712554422,27.4597176 C-0.712554422,18.685094 0.04577835,14.7365483 2.22348063,10.6422261 C4.15558368,7.00965786 6.99714602,4.15248286 10.6106754,2.20932807 C14.6845637,0.0186179491 18.6139179,-0.744344463 27.3428546,-0.744344463 L47.4219638,-0.744344463 Z"></path>
                    <rect id="Screen-BG" fill="#FFFFFF" fill-rule="nonzero" mask="url(#mask-3)" x="-28.5" y="-27.5193842" width="801" height="613"></rect>
                    <g id="Polar" mask="url(#mask-3)">
                        <g transform="translate(-3.000000, -2.000000)">
                            <rect id="Rectangle-Copy" stroke="none" fill="#DDDFE4" fill-rule="nonzero" x="0.626462275" y="0.733944077" width="191.839294" height="574.784041"></rect>
                            <g id="man-glasses" stroke="none" stroke-width="1" fill="none" fill-rule="evenodd" transform="translate(67.546109, 43.956712)">
                                <mask id="mask-5" fill="white">
                                    <use xlink:href="#path-4"></use>
                                </mask>
                                <use id="Mask" fill="#FAFAFA" fill-rule="nonzero" xlink:href="#path-4"></use>
                                <g mask="url(#mask-5)">
                                    <g transform="translate(7.000000, 11.726997)">
                                        <rect id="Rectangle-path" fill="#EAC3A2" x="16" y="23" width="12" height="15"></rect>
                                        <path d="M33,11 L33,19 C33,25.0650005 28.0650005,30 22,30 C15.9349995,30 11,25.0650005 11,19 L11,11 L33,11 Z" id="Shape" fill="#F1D9C5"></path>
                                        <path d="M44,43.0092545 C44,41.3472901 42.7710686,39.4623452 41.2495003,38.7966576 L28,33 C26.3120003,34.25 24.2460003,35 22,35 C19.7539997,35 17.6879997,34.25 16.0179996,33 L2.753592,38.7966576 C1.232825,39.4612465 0,41.3496704 0,43.0092545 L0,45.9970704 C0,46.550972 0.4498155,47 1.001672,47 L42.9983303,47 C43.5515404,47 44,46.5621185 44,45.9970703 L44,43.0092545 Z" id="Shape" fill="#FFFFFF"></path>
                                        <path d="M11,10.9989014 C11,7.6857987 13.5352898,4.0945397 16.6539803,2.9807206 L24.059681,0.3358308 C24.5790101,0.1503602 25.1990796,0.3981591 25.4438592,0.8877298 L27,4 C30.3137093,4 33,6.6930313 33,10 L33,16 C33,13.2385788 30.7614212,11 28,11 L16,11 C13.2385798,11 11,13.2385788 11,16 L11,10.9989014 Z" id="Shape" fill="#87613E"></path>
                                        <polygon id="Shape" fill="#EA9860" points="19 47 21 41 23 41 25 47"></polygon>
                                        <path d="M21,41 L23,41 L25.184679,38.8153496 C25.6149883,38.3850441 25.5644188,37.673378 25.0775852,37.3082428 L22.6000099,35.450016 C22.2444496,35.183342 21.7555504,35.183342 21.3999901,35.450016 L18.9224148,37.3082428 C18.4355812,37.673378 18.3850117,38.3850441 18.815321,38.8153496 L21,41 Z" id="Shape" fill="#EA9860"></path>
                                        <path d="M18,47 L16.0179996,33 L2.753592,38.7966576 C1.232825,39.4612465 0,41.3496704 0,43.0092545 L0,45.9970704 C0,46.550972 0.4509254,47 0.9947712,47 L18,47 Z" id="Shape" fill="#444444"></path>
                                        <path d="M26,47 L27.9820004,33 L41.2464066,38.7966576 C42.7671738,39.4612465 44,41.3496704 44,43.0092545 L44,45.9970704 C44,46.550972 43.5490761,47 43.0052299,47 L26,47 Z" id="Shape" fill="#444444"></path>
                                        <path d="M34,16 L34,17 C34,19.7614231 31.761425,22 29,22 L28,22 C25.5809994,22 23.5639992,20.2819996 23.1009998,18 L23.1000003,18 C23,17.4120007 22.552,17 22,17 C21.448,17 20.9799995,17.4510002 20.8999996,18 L20.8990001,18 C20.4360008,20.2819996 18.4190006,22 16,22 L15,22 C12.2385759,22 10,19.7614231 10,17 L10,16 C10,14.8954306 10.8954306,14 12,14 L32,14 C33.1045685,14 34,14.8954306 34,16 Z" id="Shape" fill="#444444"></path>
                                    </g>
                                </g>
                            </g>
                            <text id="Nik" stroke="none" fill="none" font-family="Avenir-Medium, Avenir" font-size="18" font-weight="400" letter-spacing="0.9514283">
                                <tspan x="81.0461092" y="130.936093" fill="#222222">Nik</tspan>
                            </text>
                            <use id="Rectangle-4" stroke="#CAC7C7" mask="url(#mask-7)" stroke-width="4" fill="none" stroke-dasharray="5,3,5,3" fill-rule="nonzero" xlink:href="#path-6"></use>
                            <text id="Drag-and-drop-files" stroke="none" fill="none" font-family="Avenir-Light, Avenir" font-size="12" font-weight="300" letter-spacing="0.6342855">
                                <tspan x="368.428952" y="113.936093" fill="#2A2A2A">Drag and drop files here to upload</tspan>
                            </text>
                            <g id="single-copies" stroke="none" stroke-width="1" fill="none" fill-rule="evenodd" transform="translate(247.144618, 95.436093)">
                                <path d="M23.4675284,20.9972622 L8.64593151,20.9972622 C7.96352049,20.9972622 7.41079844,20.4445402 7.41079844,19.7621292 L7.41079844,1.23513307 C7.41079844,0.55272205 7.96352049,0 8.64593151,0 L23.4675284,0 C24.1499394,0 24.7026615,0.55272205 24.7026615,1.23513307 L24.7026615,19.7621292 C24.7026615,20.4445402 24.1499394,20.9972622 23.4675284,20.9972622 Z" id="Shape" fill="#B3B3B3" fill-rule="nonzero"></path>
                                <path d="M19.7621292,24.7026615 L4.94053229,24.7026615 C4.25812127,24.7026615 3.70539922,24.1499394 3.70539922,23.4675284 L3.70539922,4.94053229 C3.70539922,4.25812127 4.25812127,3.70539922 4.94053229,3.70539922 L19.7621292,3.70539922 C20.4445402,3.70539922 20.9972622,4.25812127 20.9972622,4.94053229 L20.9972622,23.4675284 C20.9972622,24.1499394 20.4445402,24.7026615 19.7621292,24.7026615 Z" id="Shape" fill="#C6C6C6" fill-rule="nonzero"></path>
                                <path d="M16.05673,28.4080607 L1.23513307,28.4080607 C0.55272205,28.4080607 0,27.8553386 0,27.1729276 L0,8.64593151 C0,7.96352049 0.55272205,7.41079844 1.23513307,7.41079844 L16.05673,7.41079844 C16.739141,7.41079844 17.291863,7.96352049 17.291863,8.64593151 L17.291863,27.1729276 C17.291863,27.8553386 16.739141,28.4080607 16.05673,28.4080607 Z" id="Shape" fill="#E6E6E6" fill-rule="nonzero"></path>
                            </g>
                            <text id="Your-Files" stroke="none" fill="none" font-family="Avenir-Medium, Avenir" font-size="18" font-weight="400" letter-spacing="0.951428294">
                                <tspan x="227.81467" y="54.3896305" fill="#222222">Your Files</tspan>
                            </text>
                            <g id="Group-8" stroke="none" stroke-width="1" fill="none" fill-rule="evenodd" transform="translate(3.000000, 166.000000)">
                                <rect id="Rectangle" fill="#D2D6DD" fill-rule="nonzero" x="0.150716718" y="0.879490995" width="189.31525" height="47"></rect>
                                <g id="folder-16" transform="translate(26.546109, 14.379491)" fill-rule="nonzero">
                                    <path d="M19.4470334,6.16613253 L2.37158944,6.16613253 L2.37158944,0.948635775 C2.37158944,0.424514509 2.79610395,0 3.32022521,0 L6.64045042,0 L8.53772197,1.89727155 L18.0240797,1.89727155 C18.8100245,1.89727155 19.4470334,2.53428047 19.4470334,3.32022521 L19.4470334,6.16613253 Z" id="Shape" fill="#856342"></path>
                                    <path d="M20.3956692,9.48635775 L1.42295366,9.48635775 L1.42295366,4.26886099 C1.42295366,4.00703751 1.63544808,3.7945431 1.89727155,3.7945431 L19.9213513,3.7945431 C20.1831747,3.7945431 20.3956692,4.00703751 20.3956692,4.26886099 L20.3956692,9.48635775 Z" id="Shape" fill="#E6E6E6"></path>
                                    <path d="M19.0405429,19.4470334 L2.77807987,19.4470334 C2.30992811,19.4470334 1.91150109,19.1055245 1.8403534,18.6425902 L0.0891717628,7.25896095 C0.000948635775,6.68456199 0.445384496,6.16613253 1.02689823,6.16613253 L20.7917246,6.16613253 C21.3732383,6.16613253 21.8176742,6.68456199 21.7294511,7.25896095 L19.9782694,18.6425902 C19.9066474,19.1055245 19.5086947,19.4470334 19.0405429,19.4470334 Z" id="Shape" fill="#A67C52"></path>
                                </g>
                                <text id="Files" font-family="Avenir-Light, Avenir" font-size="12" font-weight="300" letter-spacing="0.63428551" fill="#2A2A2A">
                                    <tspan x="70.5461092" y="29.879491">Files</tspan>
                                </text>
                            </g>
                            <rect id="Rectangle" stroke="none" fill="none" fill-rule="nonzero" x="3.4381623" y="214.758982" width="189.31525" height="47"></rect>
                            <text id="Security" stroke="none" fill="none" font-family="Avenir-Light, Avenir" font-size="12" font-weight="300" letter-spacing="0.63428551">
                                <tspan x="73.8335548" y="241.758982" fill="#2A2A2A">Security</tspan>
                            </text>
                            <rect id="Rectangle" stroke="none" fill="none" fill-rule="nonzero" x="2.6164729" y="262.758982" width="189.31525" height="47"></rect>
                            <text id="Statistics" stroke="none" fill="none" font-family="Avenir-Light, Avenir" font-size="12" font-weight="300" letter-spacing="0.739999771">
                                <tspan x="74.0118654" y="289.758982" fill="#2A2A2A">Statistics</tspan>
                            </text>
                            <rect id="Rectangle" stroke="none" fill="none" fill-rule="nonzero" x="3.4381623" y="310.758982" width="189.31525" height="47"></rect>
                            <text id="Users" stroke="none" fill="none" font-family="Avenir-Light, Avenir" font-size="12" font-weight="300" letter-spacing="0.63428551">
                                <tspan x="73.8335548" y="339.758982" fill="#2A2A2A">Users</tspan>
                            </text>
                            <rect id="Rectangle" stroke="none" fill="none" fill-rule="nonzero" x="1.69682595" y="516.341324" width="189.31525" height="47"></rect>
                            <text id="Logout" stroke="none" fill="none" font-family="Avenir-Light, Avenir" font-size="12" font-weight="300" letter-spacing="0.63428551">
                                <tspan x="74.0922185" y="543.341324" fill="#2A2A2A">Logout</tspan>
                            </text>
                            <g id="log-out-2" stroke="none" stroke-width="1" fill="none" fill-rule="evenodd" transform="translate(31.122458, 528.461833)">
                                <rect id="Rectangle-path" fill="#59391F" fill-rule="nonzero" x="0.522419332" y="0.522419332" width="12.538064" height="15.67258"></rect>
                                <path d="M13.0604833,16.7174186 L0.522419332,16.7174186 C0.233913256,16.7174186 0,16.4837561 0,16.1949993 L0,0.522419332 C0,0.233662495 0.233913256,0 0.522419332,0 L13.0604833,0 C13.3489894,0 13.5829026,0.233662495 13.5829026,0.522419332 L13.5829026,16.1949993 C13.5829026,16.4837561 13.3489894,16.7174186 13.0604833,16.7174186 Z M1.04483866,15.67258 L12.538064,15.67258 L12.538064,1.04483866 L1.04483866,1.04483866 L1.04483866,15.67258 Z" id="Shape" fill="#A67C52" fill-rule="nonzero"></path>
                                <path d="M8.1406097,5.33847255 L0.826739042,0.0979536248 C0.667056349,-0.0163256041 0.457372901,-0.0321392373 0.283658025,0.0576489733 C0.109431178,0.147442408 0,0.326512083 0,0.522419332 L0,16.1949993 C0,16.3638661 0.0813720352,16.5220234 0.218867579,16.619977 L7.53273823,21.8441703 C7.62303841,21.9089608 7.72940821,21.941612 7.83628999,21.941612 C7.91791801,21.941612 8.000058,21.922225 8.07530728,21.883963 C8.24927814,21.7941696 8.35870932,21.6150999 8.35870932,21.4191926 L8.35870932,5.76293826 C8.35870932,5.59457818 8.27759327,5.43642618 8.1406097,5.33847255 Z" id="Shape" fill="#A67C52" fill-rule="nonzero"></path>
                                <path d="M23.3070959,8.46890845 L18.6053219,4.81197313 C18.4479327,4.68952848 18.2344251,4.66708535 18.0550995,4.7548309 C17.8760246,4.84258167 17.7622573,5.02471273 17.7622573,5.22419332 L17.7622573,7.83628999 L10.970806,7.83628999 C10.6822842,7.83628999 10.4483866,8.07018757 10.4483866,8.35870932 L10.4483866,9.40354798 C10.4483866,9.69206973 10.6822842,9.92596732 10.970806,9.92596732 L17.7622573,9.92596732 L17.7622573,12.538064 C17.7622573,12.7375446 17.8760246,12.9196756 18.0550995,13.0074264 C18.1280553,13.043139 18.206366,13.0604833 18.2846766,13.0604833 C18.3986999,13.0604833 18.5119604,13.02324 18.6053219,12.9502842 L23.3070959,9.29334885 C23.4343834,9.19437651 23.50887,9.04234203 23.50887,8.88112865 C23.50887,8.71991527 23.4343834,8.56788079 23.3070959,8.46890845 Z" id="Shape" fill="#EFD358" fill-rule="nonzero"></path>
                            </g>
                            <g id="touch-id" stroke="none" stroke-width="1" fill="none" fill-rule="evenodd" transform="translate(30.150717, 227.379491)">
                                <path d="M1.07637644,12.5231579 C0.870417049,12.5231579 0.686024848,12.3782341 0.643756156,12.1686088 C0.10459845,9.49481145 0.644189002,6.77399738 2.16310584,4.50823648 C2.29875875,4.3055146 2.57351408,4.25116598 2.77580754,4.38703531 C2.97852942,4.52290464 3.03266161,4.79722713 2.8967967,4.99995343 C1.51007884,7.06859736 1.01750503,9.552614 1.50986242,11.9943575 C1.55795686,12.2333148 1.403325,12.4662298 1.16415575,12.5145363 C1.13460742,12.5205696 1.10527551,12.5231579 1.07637644,12.5231579 Z" id="Shape" fill="#444444" fill-rule="nonzero"></path>
                                <path d="M3.93650936,3.53343299 C3.81918613,3.53343299 3.70229575,3.48684909 3.61538655,3.39497542 C3.44781349,3.21770308 3.45601105,2.9381997 3.63328339,2.77041463 C5.01115883,1.46996112 6.7254701,0.584014638 8.59095929,0.207898363 C10.8668567,-0.250171472 13.1578508,0.064697158 15.2193792,1.11972283 C15.4365529,1.23100389 15.5223888,1.49713322 15.4113197,1.71452327 C15.3000387,1.93148047 15.0341258,2.0164507 14.8169521,1.90646377 C12.9350722,0.94244608 10.8420564,0.654753966 8.7656478,1.07400021 C7.06233435,1.41733506 5.49726646,2.22607603 4.23973091,3.41308868 C4.15432783,3.49331969 4.04541859,3.53343299 3.93650936,3.53343299 Z" id="Shape" fill="#444444" fill-rule="nonzero"></path>
                                <path d="M20.1181837,8.68391067 C19.9122243,8.68391067 19.7278321,8.53941534 19.6855634,8.32936158 C19.2660964,6.24950342 18.1355877,4.36158134 16.5023688,3.01411551 C16.3140942,2.8588388 16.2873505,2.58062953 16.4426317,2.39214297 C16.5979084,2.20451767 16.8767625,2.17820243 17.0643878,2.33261787 C18.8537492,3.80904959 20.0920893,5.87640382 20.5516697,8.15510592 C20.5997641,8.39406316 20.4451323,8.62697823 20.205963,8.67528467 C20.1764103,8.68132243 20.1470828,8.68391067 20.1181837,8.68391067 Z" id="Shape" fill="#444444" fill-rule="nonzero"></path>
                                <path d="M20.3157291,10.7991429 C20.3127081,10.7991429 20.3099078,10.7991429 20.3071031,10.7991429 C20.0631858,10.7943993 19.8693064,10.5929671 19.8738336,10.3488378 C19.8867748,9.67467202 19.8253107,8.99490135 19.6907355,8.32806746 C19.6426411,8.08911022 19.7972729,7.85619515 20.0364422,7.80788871 C20.2769055,7.75957785 20.5085309,7.91485898 20.5568374,8.1538118 C20.7039209,8.88318745 20.7712063,9.62765528 20.7571874,10.3660898 C20.7524482,10.6067696 20.5557641,10.7991429 20.3157291,10.7991429 Z" id="Shape" fill="#444444" fill-rule="nonzero"></path>
                                <path d="M1.17472071,12.9367992 C0.976526041,12.9367992 0.796232623,12.802224 0.746411218,12.6012246 C0.711041554,12.4584563 0.678476552,12.3135281 0.649149058,12.1677387 C0.601054618,11.9287814 0.755902902,11.6958664 0.995072148,11.6475599 C1.23251884,11.5975265 1.46716088,11.7545302 1.5152509,11.993483 C1.54199457,12.1263313 1.57153849,12.2583182 1.60388707,12.3890111 C1.66254647,12.6258085 1.51805115,12.8651942 1.28125372,12.923858 C1.24567205,12.932484 1.20987396,12.9367992 1.17472071,12.9367992 Z" id="Shape" fill="#444444" fill-rule="nonzero"></path>
                                <path d="M8.09018792,19.9881357 C7.98666717,19.9881357 7.88271799,19.9519048 7.79882545,19.8781488 C7.61572737,19.7172628 7.59760969,19.4381966 7.75849573,19.2548821 C9.94230749,16.7695758 10.8202728,13.4867427 10.1672414,10.2483381 C10.119147,10.0093809 10.2737788,9.77646581 10.5129481,9.72815937 C10.752983,9.6785588 10.9850368,9.83512963 11.0333433,10.0740825 C11.7411517,13.5846541 10.789426,17.1435367 8.42230412,19.8380399 C8.33496649,19.937241 8.21290405,19.9881357 8.09018792,19.9881357 Z" id="Shape" fill="#444444" fill-rule="nonzero"></path>
                                <path d="M10.9076193,20.3116304 C10.8217834,20.3116304 10.7348742,20.2866136 10.6585299,20.2344248 C10.4573142,20.096833 10.4057702,19.8216448 10.5435829,19.6206455 C12.4895152,16.7764748 13.2967456,12.8246524 12.5518449,9.78681435 C12.2647977,8.59807474 11.3439144,7.9782576 10.2041305,8.20901727 C9.10467628,8.43071811 8.43805881,9.44045842 8.65372631,10.557593 C9.24852676,13.6407209 8.25237691,16.7458444 5.98898783,18.863232 C5.8108498,19.029723 5.53177926,19.0202357 5.36464347,18.8425261 C5.19815252,18.6643881 5.20742337,18.3848891 5.38556139,18.2179653 C7.42595552,16.3093417 8.32333266,13.5083011 7.78633035,10.7249496 C7.47620535,9.11739222 8.44043947,7.66338897 10.0294464,7.34291101 C11.6253567,7.02243306 13.0146628,7.94029969 13.4101909,9.5780503 C14.2109507,12.843627 13.3519599,17.0805576 11.2725346,20.119257 C11.1869018,20.244345 11.0484487,20.3116304 10.9076193,20.3116304 Z" id="Shape" fill="#444444" fill-rule="nonzero"></path>
                                <path d="M3.72860658,17.470048 C3.60071839,17.470048 3.47390789,17.4148381 3.38656585,17.3083007 C3.23215041,17.1193812 3.25975535,16.841172 3.44846276,16.6867565 C4.85760908,15.5329582 5.62709804,13.7636534 5.50654172,11.9546638 C5.49015101,11.7113958 5.67432678,11.5009092 5.91781124,11.4845185 C6.15611921,11.4715773 6.37156587,11.6527364 6.38774016,11.8960044 C6.52727542,13.9892366 5.63787942,16.0358849 4.00832196,17.3699767 C3.9261564,17.4372665 3.82716727,17.470048 3.72860658,17.470048 Z" id="Shape" fill="#444444" fill-rule="nonzero"></path>
                                <path d="M15.6215943,11.4836572 C15.3940677,11.4836572 15.2008331,11.3089687 15.1818542,11.078209 C15.132682,10.4821145 15.0474954,9.87998215 14.9280168,9.28906407 C14.9262898,9.28000523 14.9247837,9.27094639 14.9234896,9.26189197 C14.685398,8.11628674 14.0183477,7.12984059 13.0429038,6.48155722 C12.0601236,5.82895865 10.8823862,5.59690485 9.72470102,5.83068561 C7.83052918,6.21241121 6.38040387,7.82082991 6.19816706,9.74239468 C6.17487732,9.98522987 5.96093678,10.1715655 5.71680748,10.1400782 C5.4739723,10.1172168 5.29561785,9.90155376 5.31869117,9.65871857 C5.53759176,7.35284437 7.27756458,5.4226536 9.55001251,4.96458377 C12.4159668,4.387901 15.216791,6.24821372 15.7949843,9.11395154 C15.7969233,9.12343881 15.7984338,9.1329305 15.7997279,9.14241776 C15.9228725,9.75835255 16.0110802,10.3850731 16.0621913,11.0057516 C16.082248,11.2490196 15.9013053,11.4620944 15.6582537,11.4823675 C15.6459662,11.4832244 15.6336743,11.4836572 15.6215943,11.4836572 Z" id="Shape" fill="#444444" fill-rule="nonzero"></path>
                                <path d="M14.0819716,19.6698176 C14.017058,19.6698176 13.9512787,19.6555823 13.8889534,19.6253891 C13.6696244,19.5184188 13.5784,19.2540164 13.6853658,19.034471 C14.5775665,17.2034858 15.0899849,15.2487111 15.207953,13.2244913 C15.2221883,12.9812233 15.4328913,12.7987701 15.6746488,12.8095559 C15.9181333,12.8237912 16.104036,13.0325508 16.0900171,13.2762517 C15.9649336,15.4173619 15.4231832,17.4847117 14.479443,19.4218015 C14.4028824,19.5788052 14.2456623,19.6698176 14.0819716,19.6698176 Z" id="Shape" fill="#444444" fill-rule="nonzero"></path>
                                <path d="M2.23815596,15.5519371 C2.11285601,15.5519371 1.98841733,15.4988826 1.90107528,15.3957947 C1.74321033,15.209892 1.76628365,14.9308258 1.95240281,14.7733893 C2.83231155,14.027623 3.24465876,12.8699422 3.03611113,11.7407277 C3.0305018,11.7239042 3.02597459,11.7066522 3.02230866,11.6889673 C2.24225474,7.82082549 4.48537075,3.99969597 8.2396433,2.80146909 C8.4716971,2.72728025 8.72035803,2.85581771 8.79476329,3.08829993 C8.86895213,3.32035373 8.7406311,3.56923108 8.50836088,3.64341992 C5.20094393,4.69887844 3.21834793,8.05287928 3.87762911,11.4603631 C3.88345044,11.477615 3.8884105,11.4957327 3.89207644,11.513846 C4.18667199,12.9747527 3.66239446,14.4822389 2.52347625,15.4471178 C2.44044941,15.5174287 2.33908847,15.5519371 2.23815596,15.5519371 Z" id="Shape" fill="#444444" fill-rule="nonzero"></path>
                                <path d="M17.4924764,17.4450313 C17.4549514,17.4450313 17.4165606,17.4402876 17.3783907,17.4299347 C17.1426666,17.3673929 17.0027029,17.125419 17.0654611,16.8894828 C17.7702484,14.2458787 17.854141,11.5380058 17.3147668,8.83962022 C17.3119622,8.82970011 17.3093739,8.81934715 17.3072185,8.80856576 C16.6651893,5.62493823 13.8473251,3.31561451 10.6059039,3.31561451 C10.6037485,3.31561451 10.5994333,3.31604736 10.6002945,3.31561451 C10.3565937,3.31561451 10.1588318,3.11806469 10.1586154,2.87436823 C10.158399,2.63023893 10.3559488,2.43225626 10.5998617,2.43225626 C10.6018007,2.43225626 10.6039605,2.43225626 10.6058995,2.43225626 C14.25579,2.43225626 17.4297138,5.02410003 18.1668498,8.60239437 C18.1696544,8.61317575 18.1722427,8.62352871 18.1746145,8.63474295 C18.7478478,11.477191 18.6617998,14.3312818 17.9190545,17.1172258 C17.8664373,17.3147713 17.6876544,17.4450313 17.4924764,17.4450313 Z" id="Shape" fill="#444444" fill-rule="nonzero"></path>
                                <rect id="Rectangle-path" fill="#E86C60" fill-rule="nonzero" opacity="0.6" x="0" y="9.27526159" width="21.2005979" height="1.76671649"></rect>
                            </g>
                            <g id="metrics" stroke="none" stroke-width="1" fill="none" fill-rule="evenodd" transform="translate(30.650717, 276.379491)">
                                <path d="M2.52816676,0 C2.06298407,0 1.6854445,0.377539569 1.6854445,0.842722252 L1.6854445,12.6753854 C0.679655497,13.2593919 0,14.3460823 0,15.5903617 C0,17.4489856 1.51226508,18.9612507 3.37088901,18.9612507 C4.61516842,18.9612507 5.70185876,18.2815952 6.28586528,17.2758062 L18.1185284,17.2758062 C18.5837111,17.2758062 18.9612507,16.8982666 18.9612507,16.4330839 C18.9612507,7.3717129 11.5895378,0 2.52816676,0 Z" id="Shape" fill="#5B5B5B" fill-rule="nonzero"></path>
                                <path d="M3.37088901,17.2758062 C2.92087533,17.2758062 2.49740739,17.1005199 2.17927974,16.7823923 C1.52195639,16.1250689 1.52195639,15.0556544 2.17927974,14.3987524 C2.63519248,13.9428397 6.01745824,11.6877149 7.99364192,10.384445 C8.16050093,10.2744697 8.38213688,10.2968018 8.52371422,10.4379578 C8.66529156,10.5791138 8.68804506,10.8007497 8.57764845,10.9680301 C7.2731144,12.9446352 5.01714693,16.3285864 4.56291964,16.7823923 C4.24437062,17.1005199 3.82090269,17.2758062 3.37088901,17.2758062 Z" id="Shape" fill="#E86C60" fill-rule="nonzero"></path>
                                <path d="M15.2482164,13.9049172 C15.0564971,13.9049172 14.8833177,13.7734525 14.8378107,13.5783623 C13.7587049,8.91010237 10.0477774,5.19748949 5.38288839,4.12006909 C5.1561961,4.06782031 5.01461876,3.84154939 5.06686754,3.6148571 C5.11953768,3.38816482 5.34580861,3.24658748 5.57207953,3.29925762 C10.5491972,4.44830941 14.5083063,8.40868263 15.6590435,13.3887498 C15.7112923,13.6154421 15.5701363,13.841713 15.343444,13.8939618 C15.311842,13.9015463 15.2798185,13.9049172 15.2482164,13.9049172 Z" id="Shape" fill="#444444" fill-rule="nonzero"></path>
                                <path d="M11.7606104,7.62200141 C11.6527419,7.62200141 11.5448735,7.58070802 11.4627081,7.4985426 C9.78484807,5.81941851 7.68225605,4.65098411 5.38288839,4.12006909 C5.1561961,4.06739895 5.01461876,3.84112803 5.06686754,3.61443574 C5.11953768,3.38774345 5.34580861,3.24785156 5.57207953,3.2984149 C8.02566537,3.86514561 10.2685706,5.11111046 12.0585127,6.90231661 C12.2232649,7.06706881 12.2232649,7.3337904 12.0585127,7.4985426 C11.9763473,7.58070802 11.8684788,7.62200141 11.7606104,7.62200141 Z" id="Shape" fill="#72C472" fill-rule="nonzero"></path>
                            </g>
                            <g id="users-wm" stroke="none" stroke-width="1" fill="none" fill-rule="evenodd" transform="translate(29.650717, 324.879491)">
                                <path d="M18.9703369,12.8357183 L15.5145834,11.5793988 C15.3623551,11.5243448 15.2529754,11.3897236 15.2302492,11.2294491 L15.0530872,9.98887731 C16.2899426,9.29068945 17.0563629,7.9818614 17.0600488,6.56155724 L17.0600488,3.96842982 C17.0586665,2.78084999 16.1712965,1.78103346 14.9922834,1.63863956 L14.6104008,0.874874299 C14.4273004,0.518293387 14.0099314,0.350525566 13.630979,0.481180865 L11.2745051,1.32324738 C10.5448082,1.61083181 9.94318142,2.15173687 9.57987358,2.84684097 C10.7187256,3.79431406 11.3761733,5.19996934 11.3733659,6.68141502 L11.3733659,7.43643154 C11.476127,8.57815227 11.8511405,9.67859202 12.4669588,10.6454705 C12.6759305,10.9588516 12.74017,11.3469179 12.643331,11.7109222 C12.5464919,12.0749265 12.2979117,12.3797708 11.960844,12.5478846 C11.8203526,12.61466 11.6751753,12.6710935 11.5264689,12.7167354 L12.1292573,12.8973969 C13.2418897,13.2268681 14.0033441,14.2514092 13.9979888,15.4117857 L13.9979888,17.497486 C13.9965389,17.6468444 13.9693094,17.7948308 13.9175004,17.9349231 L19.6846717,17.9349231 C19.9262616,17.9349231 20.1221089,17.7390758 20.1221089,17.497486 L20.1221089,14.4791697 C20.1204289,13.7441463 19.6606677,13.0881178 18.9703369,12.8357183 Z" id="Shape" fill="#335262" fill-rule="nonzero"></path>
                                <path d="M12.6856773,17.9349231 L0.43743715,17.9349231 C0.195847283,17.9349231 -1.09362118e-16,17.7390758 -1.09362118e-16,17.497486 L-1.09362118e-16,15.4117857 C-0.00344826825,14.6378219 0.504828844,13.9546518 1.24713331,13.7355265 L4.15040367,12.8645891 C4.3131908,12.8152599 4.43262177,12.6760376 4.45660968,12.5076404 L4.5274745,12.0155236 C2.65305631,12.3002952 1.60189484,11.7884937 1.55290188,11.7648721 C1.44055126,11.7087846 1.35772245,11.607119 1.32549734,11.4857517 C1.29327223,11.3643844 1.31475894,11.2350213 1.38448858,11.1305883 C2.09842717,10.0213902 2.52465102,8.75173925 2.6246229,7.43643154 L2.6246229,6.56155724 C2.6246202,5.47183073 3.07629272,4.43084641 3.87211552,3.6864205 C4.66793833,2.94199458 5.73671733,2.56072321 6.82401953,2.63337164 C8.92190656,2.80826557 10.5269081,4.57644225 10.4984916,6.68141502 L10.4984916,7.43643154 C10.5980682,8.75162305 11.0238381,10.0212655 11.7373136,11.1305883 C11.8070432,11.2350213 11.8285299,11.3643844 11.7963048,11.4857517 C11.7640797,11.607119 11.6812509,11.7087846 11.5689003,11.7648721 C11.5207822,11.7884937 10.4696207,12.2998578 8.59432768,12.0155236 L8.6651925,12.5076404 C8.6891804,12.6760376 8.80861138,12.8152599 8.9713985,12.8645891 L11.8759812,13.7355265 C12.6182856,13.9546518 13.1265628,14.6378219 13.1231145,15.4117857 L13.1231145,17.497486 C13.1231145,17.7390758 12.9272672,17.9349231 12.6856773,17.9349231 Z" id="Shape" fill="#5A7A84" fill-rule="nonzero"></path>
                            </g>
                            <g id="Group-11" stroke="none" stroke-width="1" fill="none" fill-rule="evenodd" transform="translate(226.814670, 166.000000)">
                                <text id="Name-Size-Type-Actio" font-family="Avenir-Light, Avenir" font-size="12" font-weight="300" letter-spacing="0.6342855" fill="#2A2A2A">
                                    <tspan x="0.814669577" y="12">Name						Size		    Type                  Actions</tspan>
                                </text>
                                <g id="Group-10" transform="translate(0.814670, 24.461833)" fill-rule="nonzero">
                                    <rect id="Rectangle-5" fill="#DDDFE4" x="0" y="0" width="489" height="34"></rect>
                                    <rect id="Rectangle-5-Copy" fill="#E7E9EF" x="0" y="34" width="489" height="34"></rect>
                                    <rect id="Rectangle-5-Copy-2" fill="#DDDFE4" x="0" y="68" width="489" height="34"></rect>
                                    <rect id="Rectangle-5-Copy-3" fill="#E7E9EF" x="0" y="102" width="489" height="34"></rect>
                                    <rect id="Rectangle-5-Copy-4" fill="#E7E9EF" x="0" y="168.776109" width="489" height="34"></rect>
                                    <rect id="Rectangle-5-Copy-6" fill="#DDDFE4" x="0" y="203" width="489" height="34"></rect>
                                    <rect id="Rectangle-5-Copy-8" fill="#DDDFE4" x="0" y="271" width="489" height="34"></rect>
                                    <rect id="Rectangle-5-Copy-7" fill="#E7E9EF" x="0" y="237" width="489" height="34"></rect>
                                    <rect id="Rectangle-5-Copy-5" fill="#DDDFE4" x="0" y="136" width="489" height="34"></rect>
                                </g>
                            </g>
                            <g id="Group-9" stroke="none" stroke-width="1" fill="none" fill-rule="evenodd" transform="translate(227.814670, 81.936093)"></g>
                            <g id="Group-8-Copy" stroke="none" stroke-width="1" fill="none" fill-rule="evenodd" transform="translate(3.287446, 213.879491)"></g>
                            <g id="Group-8-Copy-2" stroke="none" stroke-width="1" fill="none" fill-rule="evenodd" transform="translate(2.465756, 261.879491)"></g>
                            <g id="Group-8-Copy-3" stroke="none" stroke-width="1" fill="none" fill-rule="evenodd" transform="translate(3.287446, 309.879491)"></g>
                            <g id="Group-8-Copy-4" stroke="none" stroke-width="1" fill="none" fill-rule="evenodd" transform="translate(1.546109, 515.461833)"></g>
                        </g>
                    </g>
                </g>
            </g>
        </g>
    </g>
</svg>